<svg height="800" viewBox="-1.5 0 20 20" width="800" xmlns="http://www.w3.org/2000/svg"><path d="m57.5708873 7282.19296c.7290725-.84499 1.2205139-2.02198 1.0860248-3.19296-1.0506329.04-2.3217066.67099-3.0750478 1.51498-.6764903.74899-1.2670289 1.94597-1.1082711 3.09396 1.1719764.08699 2.3682216-.57 3.0972941-1.41598m2.6280991 7.43189c.0293247 3.02696 2.7706777 4.03394 2.8010136 4.04694-.0222463.071-.437848 1.43498-1.4439883 2.84496-.8706399 1.21799-1.7736382 2.43097-3.1963913 2.45697-1.3974732.025-1.8474556-.79399-3.4461569-.79399-1.59769 0-2.097221.76799-3.4198657.81899-1.3732045.049-2.4197926-1.31798-3.2964998-2.53196-1.7938621-2.48297-3.1640331-7.01691-1.3236559-10.07686.9141214-1.51898 2.5472034-2.48197 4.3208416-2.50597 1.3479246-.025 2.6210207.86899 3.4451457.86899.8241249 0 2.3712552-1.07499 3.9972588-.91699.680535.027 2.591696.263 3.818277 1.98397-.0990972.059-2.2802475 1.27499-2.2559788 3.80495" fill-rule="evenodd" transform="translate(-46 -7279)"/></svg>